# xmcd
#
# Track frame offsets: 
#        150
#        21240
#        38105
#        55386
#        71552
#        84900
#        101184
#        117876
#        131554
#        149350
#        165214
#        182176
#        195724
#        213182
#
# Disc length: 3051 seconds
#
# Revision: 0
# Processed by: cddbd v1.5.2PL0 Copyright (c) Steve Scherf et al.
# Submitted via: ExactAudioCopy v0.99pb4
#
DISCID=c30be90e
DTITLE=ฝน  ธนสุนทร - ฝน  ซูเปอร์ฮิตลูกกรุง 1
DYEAR=2008
DGENRE=Country
TTITLE0=ดาวประทับใจ
TTITLE1=ตลอดเวลา
TTITLE2=คิดถึง
TTITLE3=โอ๊ยๆ
TTITLE4=สายเกินไป
TTITLE5=หลักไม้เลื้อย
TTITLE6=เสน่หา
TTITLE7=รักหมดใจ
TTITLE8=หนึ่งมิตรชิดใกล้
TTITLE9=เชียงรายรำลึก
TTITLE10=ร้อยบุปผา
TTITLE11=รักที่อยากลืม
TTITLE12=แหวนแลกใจ
TTITLE13=อาลัยรัก
EXTD=
EXTT0=
EXTT1=
EXTT2=
EXTT3=
EXTT4=
EXTT5=
EXTT6=
EXTT7=
EXTT8=
EXTT9=
EXTT10=
EXTT11=
EXTT12=
EXTT13=
PLAYORDER=
